<mxfile host="app.diagrams.net" modified="2020-11-11T10:42:41.950Z" agent="5.0 (Windows NT 10.0; Win64; x64) AppleWebKit/537.36 (KHTML, like Gecko) Chrome/86.0.4240.193 Safari/537.36" etag="et8iwyYYxnYTQGndXaWw" version="13.9.6" type="github">
  <diagram id="vhNA32yhA7gt9Mvv8yJN" name="Страница 1">
    <mxGraphModel dx="2249" dy="705" grid="1" gridSize="10" guides="1" tooltips="1" connect="1" arrows="1" fold="1" page="1" pageScale="1" pageWidth="827" pageHeight="1169" math="0" shadow="0">
      <root>
        <mxCell id="0" />
        <mxCell id="1" parent="0" />
        <mxCell id="5R2O_VC241QUrDr7r4t_-8" style="edgeStyle=orthogonalEdgeStyle;rounded=0;orthogonalLoop=1;jettySize=auto;html=1;entryX=0.5;entryY=0;entryDx=0;entryDy=0;" parent="1" source="5R2O_VC241QUrDr7r4t_-1" target="5R2O_VC241QUrDr7r4t_-2" edge="1">
          <mxGeometry relative="1" as="geometry" />
        </mxCell>
        <mxCell id="5R2O_VC241QUrDr7r4t_-9" style="edgeStyle=orthogonalEdgeStyle;rounded=0;orthogonalLoop=1;jettySize=auto;html=1;entryX=0.5;entryY=0;entryDx=0;entryDy=0;" parent="1" source="5R2O_VC241QUrDr7r4t_-1" target="5R2O_VC241QUrDr7r4t_-3" edge="1">
          <mxGeometry relative="1" as="geometry" />
        </mxCell>
        <mxCell id="5R2O_VC241QUrDr7r4t_-10" style="edgeStyle=orthogonalEdgeStyle;rounded=0;orthogonalLoop=1;jettySize=auto;html=1;entryX=0.5;entryY=0;entryDx=0;entryDy=0;" parent="1" source="5R2O_VC241QUrDr7r4t_-1" target="5R2O_VC241QUrDr7r4t_-4" edge="1">
          <mxGeometry relative="1" as="geometry" />
        </mxCell>
        <mxCell id="5R2O_VC241QUrDr7r4t_-1" value="Директор" style="rounded=0;whiteSpace=wrap;html=1;" parent="1" vertex="1">
          <mxGeometry x="320" y="40" width="120" height="60" as="geometry" />
        </mxCell>
        <mxCell id="5R2O_VC241QUrDr7r4t_-13" style="edgeStyle=orthogonalEdgeStyle;rounded=0;orthogonalLoop=1;jettySize=auto;html=1;" parent="1" source="5R2O_VC241QUrDr7r4t_-2" target="5R2O_VC241QUrDr7r4t_-7" edge="1">
          <mxGeometry relative="1" as="geometry">
            <Array as="points">
              <mxPoint x="290" y="190" />
              <mxPoint x="290" y="650" />
            </Array>
          </mxGeometry>
        </mxCell>
        <mxCell id="5R2O_VC241QUrDr7r4t_-23" style="edgeStyle=orthogonalEdgeStyle;rounded=0;orthogonalLoop=1;jettySize=auto;html=1;entryX=0.75;entryY=0;entryDx=0;entryDy=0;" parent="1" source="5R2O_VC241QUrDr7r4t_-2" target="5R2O_VC241QUrDr7r4t_-6" edge="1">
          <mxGeometry relative="1" as="geometry">
            <Array as="points">
              <mxPoint x="290" y="190" />
              <mxPoint x="290" y="260" />
              <mxPoint x="770" y="260" />
            </Array>
          </mxGeometry>
        </mxCell>
        <mxCell id="5R2O_VC241QUrDr7r4t_-2" value="Руководитель&amp;nbsp;" style="rounded=0;whiteSpace=wrap;html=1;" parent="1" vertex="1">
          <mxGeometry x="140" y="160" width="120" height="60" as="geometry" />
        </mxCell>
        <mxCell id="5R2O_VC241QUrDr7r4t_-12" style="edgeStyle=orthogonalEdgeStyle;rounded=0;orthogonalLoop=1;jettySize=auto;html=1;entryX=0.5;entryY=0;entryDx=0;entryDy=0;fillColor=#6a00ff;strokeColor=#3700CC;" parent="1" source="zDYuwxlkkfr3ZyuYKjbI-14" target="5R2O_VC241QUrDr7r4t_-7" edge="1">
          <mxGeometry relative="1" as="geometry" />
        </mxCell>
        <mxCell id="5R2O_VC241QUrDr7r4t_-19" style="edgeStyle=orthogonalEdgeStyle;rounded=0;orthogonalLoop=1;jettySize=auto;html=1;entryX=0.5;entryY=0;entryDx=0;entryDy=0;fillColor=#0050ef;strokeColor=#001DBC;" parent="1" source="5R2O_VC241QUrDr7r4t_-3" target="5R2O_VC241QUrDr7r4t_-6" edge="1">
          <mxGeometry relative="1" as="geometry">
            <Array as="points">
              <mxPoint x="380" y="290" />
              <mxPoint x="740" y="290" />
            </Array>
          </mxGeometry>
        </mxCell>
        <mxCell id="5R2O_VC241QUrDr7r4t_-20" style="edgeStyle=orthogonalEdgeStyle;rounded=0;orthogonalLoop=1;jettySize=auto;html=1;entryX=1;entryY=0.25;entryDx=0;entryDy=0;fillColor=#0050ef;strokeColor=#001DBC;" parent="1" source="5R2O_VC241QUrDr7r4t_-3" target="5R2O_VC241QUrDr7r4t_-2" edge="1">
          <mxGeometry relative="1" as="geometry">
            <Array as="points">
              <mxPoint x="310" y="175" />
              <mxPoint x="310" y="175" />
            </Array>
          </mxGeometry>
        </mxCell>
        <mxCell id="5R2O_VC241QUrDr7r4t_-21" style="edgeStyle=orthogonalEdgeStyle;rounded=0;orthogonalLoop=1;jettySize=auto;html=1;entryX=0;entryY=0.25;entryDx=0;entryDy=0;fillColor=#0050ef;strokeColor=#001DBC;" parent="1" source="5R2O_VC241QUrDr7r4t_-3" target="5R2O_VC241QUrDr7r4t_-4" edge="1">
          <mxGeometry relative="1" as="geometry">
            <Array as="points">
              <mxPoint x="460" y="175" />
              <mxPoint x="460" y="175" />
            </Array>
          </mxGeometry>
        </mxCell>
        <mxCell id="5R2O_VC241QUrDr7r4t_-3" value="Отдел бухгалтерии" style="rounded=0;whiteSpace=wrap;html=1;" parent="1" vertex="1">
          <mxGeometry x="320" y="160" width="120" height="60" as="geometry" />
        </mxCell>
        <mxCell id="5R2O_VC241QUrDr7r4t_-11" style="edgeStyle=orthogonalEdgeStyle;rounded=0;orthogonalLoop=1;jettySize=auto;html=1;fillColor=#a20025;strokeColor=#6F0000;" parent="1" source="5R2O_VC241QUrDr7r4t_-4" target="5R2O_VC241QUrDr7r4t_-7" edge="1">
          <mxGeometry relative="1" as="geometry">
            <Array as="points">
              <mxPoint x="470" y="190" />
              <mxPoint x="470" y="650" />
            </Array>
          </mxGeometry>
        </mxCell>
        <mxCell id="5R2O_VC241QUrDr7r4t_-24" style="edgeStyle=orthogonalEdgeStyle;rounded=0;orthogonalLoop=1;jettySize=auto;html=1;entryX=0.25;entryY=0;entryDx=0;entryDy=0;fillColor=#fad7ac;strokeColor=#6F0000;" parent="1" source="5R2O_VC241QUrDr7r4t_-4" target="5R2O_VC241QUrDr7r4t_-6" edge="1">
          <mxGeometry relative="1" as="geometry" />
        </mxCell>
        <mxCell id="z1MQ4k9wcMi4-fj4tBe9-8" style="edgeStyle=orthogonalEdgeStyle;rounded=0;orthogonalLoop=1;jettySize=auto;html=1;strokeColor=#6F0000;entryX=0.25;entryY=1;entryDx=0;entryDy=0;" parent="1" source="5R2O_VC241QUrDr7r4t_-4" target="5R2O_VC241QUrDr7r4t_-2" edge="1">
          <mxGeometry relative="1" as="geometry">
            <mxPoint x="190" y="290" as="targetPoint" />
            <Array as="points">
              <mxPoint x="560" y="310" />
              <mxPoint x="170" y="310" />
            </Array>
          </mxGeometry>
        </mxCell>
        <mxCell id="5R2O_VC241QUrDr7r4t_-4" value="Юридический отдел" style="rounded=0;whiteSpace=wrap;html=1;" parent="1" vertex="1">
          <mxGeometry x="500" y="160" width="120" height="60" as="geometry" />
        </mxCell>
        <mxCell id="5R2O_VC241QUrDr7r4t_-14" style="edgeStyle=orthogonalEdgeStyle;rounded=0;orthogonalLoop=1;jettySize=auto;html=1;entryX=0;entryY=0.5;entryDx=0;entryDy=0;fillColor=#e3c800;strokeColor=#B09500;" parent="1" source="5R2O_VC241QUrDr7r4t_-5" target="5R2O_VC241QUrDr7r4t_-6" edge="1">
          <mxGeometry relative="1" as="geometry" />
        </mxCell>
        <mxCell id="5R2O_VC241QUrDr7r4t_-5" value="Клиент" style="rounded=0;whiteSpace=wrap;html=1;" parent="1" vertex="1">
          <mxGeometry x="-40" y="400" width="120" height="60" as="geometry" />
        </mxCell>
        <mxCell id="5R2O_VC241QUrDr7r4t_-15" style="edgeStyle=orthogonalEdgeStyle;rounded=0;orthogonalLoop=1;jettySize=auto;html=1;entryX=1;entryY=0.25;entryDx=0;entryDy=0;fillColor=#fa6800;strokeColor=#55C8D0;" parent="1" source="5R2O_VC241QUrDr7r4t_-6" target="5R2O_VC241QUrDr7r4t_-5" edge="1">
          <mxGeometry relative="1" as="geometry">
            <Array as="points">
              <mxPoint x="570" y="415" />
              <mxPoint x="570" y="415" />
            </Array>
          </mxGeometry>
        </mxCell>
        <mxCell id="5R2O_VC241QUrDr7r4t_-31" style="edgeStyle=orthogonalEdgeStyle;rounded=0;orthogonalLoop=1;jettySize=auto;html=1;entryX=0.75;entryY=1;entryDx=0;entryDy=0;fillColor=#a0522d;strokeColor=#55C8D0;" parent="1" source="5R2O_VC241QUrDr7r4t_-6" target="5R2O_VC241QUrDr7r4t_-3" edge="1">
          <mxGeometry relative="1" as="geometry">
            <Array as="points">
              <mxPoint x="790" y="240" />
              <mxPoint x="410" y="240" />
            </Array>
          </mxGeometry>
        </mxCell>
        <mxCell id="5R2O_VC241QUrDr7r4t_-32" style="edgeStyle=orthogonalEdgeStyle;rounded=0;orthogonalLoop=1;jettySize=auto;html=1;entryX=0.5;entryY=1;entryDx=0;entryDy=0;fillColor=#a0522d;strokeColor=#55C8D0;" parent="1" source="5R2O_VC241QUrDr7r4t_-6" target="5R2O_VC241QUrDr7r4t_-2" edge="1">
          <mxGeometry relative="1" as="geometry">
            <Array as="points">
              <mxPoint x="790" y="240" />
              <mxPoint x="200" y="240" />
            </Array>
          </mxGeometry>
        </mxCell>
        <mxCell id="5R2O_VC241QUrDr7r4t_-6" value="Приложение" style="rounded=0;whiteSpace=wrap;html=1;" parent="1" vertex="1">
          <mxGeometry x="680" y="400" width="120" height="60" as="geometry" />
        </mxCell>
        <mxCell id="5R2O_VC241QUrDr7r4t_-25" style="edgeStyle=orthogonalEdgeStyle;rounded=0;orthogonalLoop=1;jettySize=auto;html=1;entryX=0.5;entryY=1;entryDx=0;entryDy=0;fillColor=#a0522d;strokeColor=#6D1F00;" parent="1" source="5R2O_VC241QUrDr7r4t_-7" target="5R2O_VC241QUrDr7r4t_-6" edge="1">
          <mxGeometry relative="1" as="geometry">
            <Array as="points">
              <mxPoint x="740" y="690" />
            </Array>
          </mxGeometry>
        </mxCell>
        <mxCell id="5R2O_VC241QUrDr7r4t_-7" value="Технический центр" style="rounded=0;whiteSpace=wrap;html=1;" parent="1" vertex="1">
          <mxGeometry x="320" y="640" width="120" height="60" as="geometry" />
        </mxCell>
        <mxCell id="5R2O_VC241QUrDr7r4t_-35" value="&lt;font color=&quot;#55c8d0&quot;&gt;Информация о финансовых операциях&lt;/font&gt;" style="text;html=1;align=center;verticalAlign=middle;whiteSpace=wrap;rounded=0;fontColor=#ffffff;" parent="1" vertex="1">
          <mxGeometry x="730" y="190" width="120" height="40" as="geometry" />
        </mxCell>
        <mxCell id="z1MQ4k9wcMi4-fj4tBe9-2" value="&lt;font color=&quot;#0050ef&quot;&gt;Финансовый отчет&lt;/font&gt;" style="text;html=1;align=center;verticalAlign=middle;whiteSpace=wrap;rounded=0;fontColor=#ffffff;" parent="1" vertex="1">
          <mxGeometry x="250" y="100" width="80" height="40" as="geometry" />
        </mxCell>
        <mxCell id="z1MQ4k9wcMi4-fj4tBe9-10" value="" style="endArrow=classic;startArrow=classic;html=1;entryX=0;entryY=0.5;entryDx=0;entryDy=0;exitX=0.5;exitY=0;exitDx=0;exitDy=0;" parent="1" source="5R2O_VC241QUrDr7r4t_-5" target="5R2O_VC241QUrDr7r4t_-2" edge="1">
          <mxGeometry width="50" height="50" relative="1" as="geometry">
            <mxPoint x="10" y="390" as="sourcePoint" />
            <mxPoint x="60" y="340" as="targetPoint" />
            <Array as="points">
              <mxPoint x="20" y="190" />
            </Array>
          </mxGeometry>
        </mxCell>
        <mxCell id="zDYuwxlkkfr3ZyuYKjbI-1" value="&lt;font color=&quot;#0050ef&quot;&gt;Доход&lt;/font&gt;" style="text;html=1;align=center;verticalAlign=middle;whiteSpace=wrap;rounded=0;fontColor=#ffffff;" vertex="1" parent="1">
          <mxGeometry x="270" y="150" width="40" height="20" as="geometry" />
        </mxCell>
        <mxCell id="zDYuwxlkkfr3ZyuYKjbI-2" value="&lt;font color=&quot;#0050ef&quot;&gt;Зарплата&lt;/font&gt;" style="text;html=1;align=center;verticalAlign=middle;whiteSpace=wrap;rounded=0;fontColor=#ffffff;" vertex="1" parent="1">
          <mxGeometry x="450" y="150" width="40" height="20" as="geometry" />
        </mxCell>
        <mxCell id="zDYuwxlkkfr3ZyuYKjbI-4" value="Обратная связь" style="text;html=1;strokeColor=none;fillColor=none;align=center;verticalAlign=middle;whiteSpace=wrap;rounded=0;" vertex="1" parent="1">
          <mxGeometry x="40" y="160" width="40" height="20" as="geometry" />
        </mxCell>
        <mxCell id="zDYuwxlkkfr3ZyuYKjbI-5" value="Информация о финансовых операциях" style="text;html=1;align=center;verticalAlign=middle;whiteSpace=wrap;rounded=0;fontColor=#ffffff;" vertex="1" parent="1">
          <mxGeometry x="850" y="250" width="90" height="60" as="geometry" />
        </mxCell>
        <mxCell id="zDYuwxlkkfr3ZyuYKjbI-6" value="&lt;font color=&quot;#55c8d0&quot;&gt;Ошибки&lt;/font&gt;" style="text;html=1;align=center;verticalAlign=middle;whiteSpace=wrap;rounded=0;fontColor=#ffffff;" vertex="1" parent="1">
          <mxGeometry x="200" y="240" width="60" height="20" as="geometry" />
        </mxCell>
        <mxCell id="zDYuwxlkkfr3ZyuYKjbI-7" value="&lt;font color=&quot;#6f0000&quot;&gt;Организация правовой работы&lt;/font&gt;" style="text;html=1;align=center;verticalAlign=middle;whiteSpace=wrap;rounded=0;fontColor=#ffffff;" vertex="1" parent="1">
          <mxGeometry x="620" y="140" width="120" height="40" as="geometry" />
        </mxCell>
        <mxCell id="zDYuwxlkkfr3ZyuYKjbI-8" value="&lt;font color=&quot;#6f0000&quot;&gt;Консультация&lt;/font&gt;" style="text;html=1;align=center;verticalAlign=middle;whiteSpace=wrap;rounded=0;fontColor=#ffffff;" vertex="1" parent="1">
          <mxGeometry x="510" y="320" width="100" height="20" as="geometry" />
        </mxCell>
        <mxCell id="zDYuwxlkkfr3ZyuYKjbI-9" value="&lt;font color=&quot;#6f0000&quot;&gt;Организация правовой работы&lt;/font&gt;" style="text;html=1;align=center;verticalAlign=middle;whiteSpace=wrap;rounded=0;fontColor=#ffffff;" vertex="1" parent="1">
          <mxGeometry x="470" y="610" width="100" height="20" as="geometry" />
        </mxCell>
        <mxCell id="zDYuwxlkkfr3ZyuYKjbI-10" value="Распоряжения" style="text;html=1;strokeColor=none;fillColor=none;align=center;verticalAlign=middle;whiteSpace=wrap;rounded=0;" vertex="1" parent="1">
          <mxGeometry x="210" y="610" width="40" height="20" as="geometry" />
        </mxCell>
        <mxCell id="zDYuwxlkkfr3ZyuYKjbI-11" value="&lt;font color=&quot;#55c8d0&quot;&gt;Самокат&lt;/font&gt;" style="text;html=1;align=center;verticalAlign=middle;whiteSpace=wrap;rounded=0;fontColor=#ffffff;" vertex="1" parent="1">
          <mxGeometry x="100" y="390" width="60" height="20" as="geometry" />
        </mxCell>
        <mxCell id="zDYuwxlkkfr3ZyuYKjbI-12" value="&lt;font color=&quot;#e3c800&quot;&gt;Запрос&lt;/font&gt;" style="text;html=1;align=center;verticalAlign=middle;whiteSpace=wrap;rounded=0;fontColor=#ffffff;" vertex="1" parent="1">
          <mxGeometry x="110" y="430" width="60" height="20" as="geometry" />
        </mxCell>
        <mxCell id="zDYuwxlkkfr3ZyuYKjbI-13" value="&lt;font color=&quot;#e3c800&quot;&gt;Деньги&lt;/font&gt;" style="text;html=1;align=center;verticalAlign=middle;whiteSpace=wrap;rounded=0;fontColor=#ffffff;" vertex="1" parent="1">
          <mxGeometry x="110" y="460" width="60" height="20" as="geometry" />
        </mxCell>
        <mxCell id="zDYuwxlkkfr3ZyuYKjbI-14" value="&lt;font color=&quot;#0050ef&quot;&gt;Составление и заключение финансовых договоренностей&lt;/font&gt;" style="text;html=1;align=center;verticalAlign=middle;whiteSpace=wrap;rounded=0;fontColor=#ffffff;" vertex="1" parent="1">
          <mxGeometry x="330" y="340" width="100" height="60" as="geometry" />
        </mxCell>
        <mxCell id="zDYuwxlkkfr3ZyuYKjbI-17" style="edgeStyle=orthogonalEdgeStyle;rounded=0;orthogonalLoop=1;jettySize=auto;html=1;entryX=0.5;entryY=0;entryDx=0;entryDy=0;fillColor=#6a00ff;strokeColor=#3700CC;" edge="1" parent="1" source="5R2O_VC241QUrDr7r4t_-3" target="zDYuwxlkkfr3ZyuYKjbI-14">
          <mxGeometry relative="1" as="geometry">
            <mxPoint x="380" y="220" as="sourcePoint" />
            <mxPoint x="380" y="640" as="targetPoint" />
          </mxGeometry>
        </mxCell>
      </root>
    </mxGraphModel>
  </diagram>
</mxfile>
